<svg xmlns="http://www.w3.org/2000/svg" viewBox="0 0 96 108" fill="currentColor">
  <path d="M 18,0 H 78 V 24 H 66 V 12 H 60 V 24 H 36 V 12 H 30 V 24 H 18 Z M 12,24 H 18 V 48 H 12 Z M 78,24 H 84 V 48 H 78 Z M 18,48 H 78 V 60 H 66 V 72 H 30 V 60 H 18 Z"/>
  <polygon points="42,32 44,36 42,40 40,36"/>
  <polygon points="54,32 56,36 54,40 52,36"/>
  <path d="M 12,72 H 18 V 108 H 12 Z M 24,72 H 30 V 96 H 24 Z M 36,72 H 42 V 84 H 36 Z M 54,72 H 60 V 84 H 54 Z M 66,72 H 72 V 96 H 66 Z M 78,72 H 84 V 108 H 78 Z"/>
</svg>
